<svg xmlns="http://www.w3.org/2000/svg" width="22.87" height="22.87" viewBox="0 0 22.87 22.87">
  <path id="arrow-left-square" d="M1.429,2.859A1.429,1.429,0,0,1,2.859,1.429H20.011a1.429,1.429,0,0,1,1.429,1.429V20.011a1.429,1.429,0,0,1-1.429,1.429H2.859a1.429,1.429,0,0,1-1.429-1.429Zm21.441,0A2.859,2.859,0,0,0,20.011,0H2.859A2.859,2.859,0,0,0,0,2.859V20.011A2.859,2.859,0,0,0,2.859,22.87H20.011a2.859,2.859,0,0,0,2.859-2.859ZM6.432,10.72a.715.715,0,0,0,0,1.429h8.28l-3.069,3.067a.716.716,0,1,0,1.012,1.012l4.288-4.288a.715.715,0,0,0,0-1.012L12.656,6.641a.716.716,0,1,0-1.012,1.012l3.069,3.067Z" fill="#158efb" fill-rule="evenodd"/>
</svg>
