<svg xmlns="http://www.w3.org/2000/svg" width="76.559" height="76.561" viewBox="0 0 76.559 76.561"><g transform="translate(-1 -0.998)"><g transform="translate(1 1)"><path d="M21297.25-21780.437l-32.25.025v-2.469h8.645v-19.248l-8.283-8.283a1.232,1.232,0,0,1,0-1.744l3.7-3.707a1.242,1.242,0,0,1,.875-.359,1.242,1.242,0,0,1,.875.359l6.172,6.176-1.746,1.744-5.3-5.3-1.959,1.959,7.773,7.771a1.214,1.214,0,0,1,.361.873v2.469h7.41v-2.469a1.208,1.208,0,0,1,.363-.873l7.768-7.771-1.959-1.959-5.3,5.3-1.75-1.744,6.176-6.176a1.241,1.241,0,0,1,.873-.359,1.25,1.25,0,0,1,.877.359l3.7,3.707a1.228,1.228,0,0,1,.363.873,1.227,1.227,0,0,1-.363.871l-8.283,8.283v19.248l11.2.037Zm-18.668-14.791h2.469v12.348h2.473v-14.82h-7.41v14.82h2.469v-12.348Zm62.977,14.816h0l-32.1-.01v-2.422l11.113-.037v-19.248l-8.283-8.283a1.227,1.227,0,0,1-.363-.871,1.228,1.228,0,0,1,.363-.873l3.709-3.707a1.236,1.236,0,0,1,.871-.359,1.241,1.241,0,0,1,.873.359l6.176,6.176-1.75,1.744-5.3-5.3-1.957,1.959,7.768,7.771a1.228,1.228,0,0,1,.361.873v2.469h7.41v-2.469a1.228,1.228,0,0,1,.363-.873l7.771-7.771-1.963-1.959-5.3,5.3-1.744-1.744,6.17-6.176a1.25,1.25,0,0,1,.877-.359,1.241,1.241,0,0,1,.873.359l3.7,3.707a1.232,1.232,0,0,1,0,1.744l-8.283,8.283v19.248h8.645v2.469Zm-16.055-14.816h2.475v12.348h2.467v-14.82h-7.41v14.82h2.469v-12.348Z" transform="translate(-21265 21854.502)"/><path d="M21298.34-21777.943c-.514,0-1.105-.307-1.141-.762s0-1.668,0-1.668l-.094-12.564v-18.346a1.233,1.233,0,0,1,1.234-1.234h1.234v-2.83a19.78,19.78,0,0,1-16.051-19.4,19.782,19.782,0,0,1,19.754-19.76,19.779,19.779,0,0,1,19.758,19.76,19.778,19.778,0,0,1-16.051,19.4v2.83h1.234a1.23,1.23,0,0,1,1.234,1.234v32.105a1.23,1.23,0,0,1-1.234,1.234Zm1.234-2.469h7.41v-24.7h-7.41Zm0-27.164h7.41v-2.473h-7.41Zm2.469-4.941h2.469v-2.535c-.406.027-.812.066-1.234.066s-.824-.039-1.234-.066Zm-16.051-22.227a17.308,17.308,0,0,0,17.285,17.289,17.309,17.309,0,0,0,17.289-17.289,17.31,17.31,0,0,0-17.289-17.291A17.31,17.31,0,0,0,21285.992-21834.744Z" transform="translate(-21265 21854.502)" fill="#00a2ff"/><path d="M47,34.409a4.939,4.939,0,0,0,9.879,0v-2.47a4.939,4.939,0,0,0-9.879,0Zm2.47-2.47a2.47,2.47,0,0,1,4.939,0v2.47a2.47,2.47,0,0,1-4.939,0Z" transform="translate(9.802 5.105)"/><path d="M13.939,39.348a4.944,4.944,0,0,0,4.939-4.939v-2.47a4.939,4.939,0,0,0-9.879,0v2.47A4.944,4.944,0,0,0,13.939,39.348Zm-2.47-7.409a2.47,2.47,0,0,1,4.939,0v2.47a2.47,2.47,0,0,1-4.939,0Z" transform="translate(0.879 5.105)"/><path d="M34.818,5A14.834,14.834,0,0,0,20,19.818h2.47A12.362,12.362,0,0,1,34.818,7.47Z" transform="translate(3.462 -0.061)" fill="#00a2ff"/><path d="M32,31.818A14.834,14.834,0,0,0,46.818,17h-2.47A12.362,12.362,0,0,1,32,29.348Z" transform="translate(6.28 2.757)" fill="#00a2ff"/></g></g></svg>