<svg xmlns="http://www.w3.org/2000/svg" width="68.038" height="67.989" viewBox="0 0 68.038 67.989"><g transform="translate(-3.001 -3.021)"><g transform="translate(3.001 3.022)"><g transform="translate(24.633)"><path d="M41.621,21.74H25.173a1.174,1.174,0,0,1-1.05-1.7L32.335,3.618a1.221,1.221,0,0,1,2.1,0L42.55,19.854a1.173,1.173,0,0,1-.929,1.886ZM27.072,19.394H39.7L33.385,6.767Z" transform="translate(-23.999 -3.022)" fill="#00a2ff"/></g><g transform="translate(49.269 24.585)"><path d="M54.385,42.748a9.385,9.385,0,1,1,9.385-9.385A9.4,9.4,0,0,1,54.385,42.748Zm0-16.423a7.039,7.039,0,1,0,7.039,7.039A7.046,7.046,0,0,0,54.385,26.325Z" transform="translate(-45 -23.979)" fill="#00a2ff"/></g><g transform="translate(24.634 49.22)"><path d="M41.6,63.748H25.173A1.173,1.173,0,0,1,24,62.575V46.152a1.173,1.173,0,0,1,1.173-1.173H41.6a1.173,1.173,0,0,1,1.173,1.173V62.575A1.174,1.174,0,0,1,41.6,63.748ZM26.346,61.4H40.423V47.325H26.346Z" transform="translate(-24 -44.979)" fill="#00a2ff"/></g><g transform="translate(0 24.581)"><path d="M17.461,42.748a1.167,1.167,0,0,1-.568-.147l-4.508-2.492L7.878,42.6a1.174,1.174,0,0,1-1.726-1.216l.874-5.356L3.334,32.243A1.174,1.174,0,0,1,4,30.264l5.055-.774,2.272-4.839a1.173,1.173,0,0,1,2.123,0L15.72,29.49l5.055.774a1.174,1.174,0,0,1,.663,1.979l-3.692,3.784.874,5.356a1.176,1.176,0,0,1-1.159,1.364ZM12.385,37.6a1.177,1.177,0,0,1,.568.147l2.961,1.636-.581-3.557a1.17,1.17,0,0,1,.318-1.008l2.512-2.574-3.417-.523a1.173,1.173,0,0,1-.885-.66l-1.476-3.146-1.476,3.144a1.168,1.168,0,0,1-.885.66l-3.417.523,2.512,2.574a1.171,1.171,0,0,1,.318,1.008l-.581,3.557,2.961-1.636A1.2,1.2,0,0,1,12.385,37.6Z" transform="translate(-3.001 -23.976)" fill="#00a2ff"/></g><g transform="translate(45.75 8.162)"><path d="M54.9,24.055a1.173,1.173,0,0,1-1.173-1.173V15.844a3.524,3.524,0,0,0-3.519-3.519H43.173a1.173,1.173,0,1,1,0-2.346h7.039a5.872,5.872,0,0,1,5.865,5.865v7.037A1.174,1.174,0,0,1,54.9,24.055Z" transform="translate(-42 -9.979)"/></g><g transform="translate(53.962 16.373)"><path d="M53.775,22.843a1.176,1.176,0,0,1-.82-.333l-3.6-3.518a1.173,1.173,0,0,1,1.639-1.68l2.763,2.7,2.617-2.679a1.173,1.173,0,1,1,1.679,1.638l-3.437,3.519a1.171,1.171,0,0,1-.826.354Z" transform="translate(-49.001 -16.979)"/></g><g transform="translate(45.751 45.699)"><path d="M50.211,56.055H43.174a1.173,1.173,0,1,1,0-2.346h7.037a3.524,3.524,0,0,0,3.519-3.519V43.151a1.173,1.173,0,0,1,2.346,0V50.19A5.873,5.873,0,0,1,50.211,56.055Z" transform="translate(-42.001 -41.978)"/></g><g transform="translate(45.751 53.912)"><path d="M46.693,58.363a1.175,1.175,0,0,1-.82-.333l-3.519-3.437a1.174,1.174,0,0,1-.019-1.66l3.518-3.6a1.173,1.173,0,1,1,1.679,1.64l-2.7,2.761,2.681,2.616a1.175,1.175,0,0,1-.821,2.014Z" transform="translate(-42.001 -48.979)"/></g><g transform="translate(8.211 45.699)"><path d="M22.9,56.055H15.865A5.872,5.872,0,0,1,10,50.19V43.151a1.173,1.173,0,1,1,2.346,0V50.19a3.524,3.524,0,0,0,3.519,3.519H22.9a1.173,1.173,0,1,1,0,2.346Z" transform="translate(-10 -41.978)"/></g><g transform="translate(4.692 45.699)"><path d="M8.173,47.843a1.172,1.172,0,0,1-.84-1.992l3.437-3.519a1.171,1.171,0,0,1,.826-.354,1.308,1.308,0,0,1,.833.334l3.6,3.519a1.173,1.173,0,1,1-1.639,1.678l-2.763-2.7L9.012,47.489A1.165,1.165,0,0,1,8.173,47.843Z" transform="translate(-7 -41.978)"/></g><g transform="translate(8.211 8.161)"><path d="M11.173,24.055A1.173,1.173,0,0,1,10,22.882V15.843a5.872,5.872,0,0,1,5.865-5.865H22.9a1.173,1.173,0,1,1,0,2.346H15.865a3.524,3.524,0,0,0-3.519,3.519v7.039A1.173,1.173,0,0,1,11.173,24.055Z" transform="translate(-10 -9.978)"/></g><g transform="translate(16.42 4.643)"><path d="M18.173,16.362a1.173,1.173,0,0,1-.84-1.993l2.7-2.761L17.351,8.992a1.173,1.173,0,0,1,1.639-1.68l3.519,3.437a1.174,1.174,0,0,1,.019,1.66l-3.518,3.6A1.163,1.163,0,0,1,18.173,16.362Z" transform="translate(-16.998 -6.979)"/></g></g></g></svg>