<svg xmlns="http://www.w3.org/2000/svg" width="65.411" height="80.095" viewBox="0 0 65.411 80.095"><g transform="translate(-1.707 -6.996)"><g transform="translate(1.707 6.996)"><g transform="translate(7.519 0)"><path d="M348.64,79.57H293.251A1.248,1.248,0,0,1,292,78.319V8.251A1.248,1.248,0,0,1,293.251,7H337.7a1.251,1.251,0,0,1,0,2.5H294.5V77.067h52.885l-.01-57.349a1.251,1.251,0,1,1,2.5,0l.01,58.6a1.246,1.246,0,0,1-1.251,1.251Z" transform="translate(-292 -7)"/></g><g transform="translate(0 7.525)"><path d="M204.44,223.87H149.051a1.248,1.248,0,0,1-1.251-1.251V152.551a1.248,1.248,0,0,1,1.251-1.251h7.519a1.251,1.251,0,0,1,0,2.5H150.3v67.564h52.885v-6.273a1.251,1.251,0,1,1,2.5,0v7.525a1.251,1.251,0,0,1-.365.886A1.269,1.269,0,0,1,204.44,223.87Z" transform="translate(-147.8 -151.3)" fill="#158efb"/></g><g transform="translate(51.973 0)"><path d="M1156.681,20.966h-10.93a1.248,1.248,0,0,1-1.251-1.251V8.248a1.253,1.253,0,0,1,2.159-.866l10.93,11.467a1.253,1.253,0,0,1-.907,2.117Zm-9.683-2.5h6.758L1147,11.371Z" transform="translate(-1144.5 -6.996)"/></g><g transform="translate(18.465 25.843)"><g transform="translate(10.189)"><path d="M711.676,505.1H698.551a1.251,1.251,0,0,1,0-2.5h13.125a1.251,1.251,0,1,1,0,2.5Z" transform="translate(-697.3 -502.6)" fill="#00a2ff"/></g><g transform="translate(0 9.193)"><path d="M536.655,681.4h-33.5a1.251,1.251,0,0,1,0-2.5H536.66a1.251,1.251,0,1,1-.005,2.5Z" transform="translate(-501.9 -678.9)" fill="#00a2ff"/></g><g transform="translate(0 18.381)"><path d="M536.655,857.6h-33.5a1.251,1.251,0,0,1,0-2.5H536.66a1.251,1.251,0,1,1-.005,2.5Z" transform="translate(-501.9 -855.1)" fill="#00a2ff"/></g></g></g></g></svg>