<svg xmlns="http://www.w3.org/2000/svg" width="78.795" height="79" viewBox="0 0 78.795 79"><g transform="translate(-2.626 -2)"><path d="M59.667,29.073a26.159,26.159,0,0,0-6.207-6.207,1.312,1.312,0,0,0-1.324-.117l-4.277,2.022A22.729,22.729,0,0,0,45.266,23.7l-1.592-4.8a1.313,1.313,0,0,0-1.247-.9H34.1a1.313,1.313,0,0,0-1.247.9l-1.611,4.854L28.726,24.8l-4.332-2.049a1.316,1.316,0,0,0-1.32.115,26.182,26.182,0,0,0-6.208,6.206,1.317,1.317,0,0,0-.118,1.324L18.8,34.727l-1.044,2.519L12.9,38.856A1.313,1.313,0,0,0,12,40.1v8.326a1.313,1.313,0,0,0,.9,1.246l4.853,1.61L18.8,53.8l-2.049,4.333a1.315,1.315,0,0,0,.115,1.32,26.159,26.159,0,0,0,6.207,6.207,1.311,1.311,0,0,0,1.344.107l3.927-1.944-1.164-2.353-3.21,1.588a23.544,23.544,0,0,1-4.51-4.509L21.421,54.4a1.315,1.315,0,0,0,.026-1.064l-1.5-3.611a1.312,1.312,0,0,0-.8-.744l-4.523-1.5V41.05l4.523-1.5a1.313,1.313,0,0,0,.8-.744l1.5-3.611a1.315,1.315,0,0,0-.026-1.064l-1.963-4.15a23.533,23.533,0,0,1,4.519-4.523l4.153,1.964a1.31,1.31,0,0,0,1.064.026l3.611-1.5a1.315,1.315,0,0,0,.744-.8l1.5-4.524h6.43l1.5,4.524a1.316,1.316,0,0,0,.854.84,20.054,20.054,0,0,1,3.39,1.4,1.312,1.312,0,0,0,1.176.026l4.15-1.963a23.533,23.533,0,0,1,4.523,4.519L55.109,34.13a1.312,1.312,0,0,0,.027,1.175,20.139,20.139,0,0,1,1.4,3.389,1.313,1.313,0,0,0,.84.855l4.523,1.5v6.43l-4.523,1.5a1.313,1.313,0,0,0-.84.855,20.14,20.14,0,0,1-1.4,3.39,1.312,1.312,0,0,0-.027,1.175l1.963,4.15a23.544,23.544,0,0,1-4.507,4.513l-3.213-1.59-1.164,2.353,3.927,1.944a1.312,1.312,0,0,0,1.34-.1,26.182,26.182,0,0,0,6.208-6.206,1.317,1.317,0,0,0,.118-1.324L57.76,53.86a22.775,22.775,0,0,0,1.075-2.594l4.8-1.591a1.313,1.313,0,0,0,.9-1.247V40.1a1.313,1.313,0,0,0-.9-1.247l-4.8-1.591A22.728,22.728,0,0,0,57.76,34.67l2.022-4.276a1.316,1.316,0,0,0-.115-1.32Z" transform="translate(3.759 5.012)"/><path d="M29.194,68.028v3.94a1.313,1.313,0,0,0,1.313,1.313H41.013a1.313,1.313,0,0,0,1.313-1.313v-3.94a1.313,1.313,0,0,0,1.313-1.313V64.751A23.034,23.034,0,0,1,48.445,51.1a15.6,15.6,0,0,0,3.074-9.34,15.761,15.761,0,1,0-28.154,9.721A22.445,22.445,0,0,1,27.88,65.367v1.349a1.313,1.313,0,0,0,1.313,1.313ZM39.7,70.655H31.82V68.028H39.7Zm-14.27-20.8A13.075,13.075,0,0,1,22.79,39.665a13.134,13.134,0,1,1,23.544,9.876,25.631,25.631,0,0,0-5.321,15.21V65.4h-3.94V54.763a6.566,6.566,0,1,0-2.627,0V65.4h-3.94v-.035A25.086,25.086,0,0,0,25.429,49.86Zm10.33,2.41a3.94,3.94,0,1,1,3.94-3.94,3.94,3.94,0,0,1-3.94,3.94Z" transform="translate(6.264 7.514)" fill="#00a2ff"/><path d="M24,6.008v6.43a4.012,4.012,0,0,0,4.008,4.008h3.169L33.413,19.8a1.313,1.313,0,0,0,2.185,0l2.237-3.355H41a4.012,4.012,0,0,0,4.008-4.008V6.008A4.012,4.012,0,0,0,41,2h-13A4.012,4.012,0,0,0,24,6.008Zm2.627,0a1.383,1.383,0,0,1,1.381-1.381H41a1.383,1.383,0,0,1,1.381,1.381v6.43A1.383,1.383,0,0,1,41,13.819H37.133a1.313,1.313,0,0,0-1.092.585l-1.534,2.3-1.534-2.3a1.314,1.314,0,0,0-1.093-.585H28.008a1.383,1.383,0,0,1-1.381-1.381Z" transform="translate(7.518)" fill="#00a2ff"/><path d="M55.819,2A11.819,11.819,0,1,0,67.639,13.819,11.819,11.819,0,0,0,55.819,2Zm0,21.012a9.193,9.193,0,1,1,9.193-9.193A9.193,9.193,0,0,1,55.819,23.012Z" transform="translate(13.783)" fill="#00a2ff"/><path d="M13.819,25.639A11.819,11.819,0,1,0,2,13.819,11.819,11.819,0,0,0,13.819,25.639Zm0-21.012a9.193,9.193,0,1,1-9.193,9.193,9.193,9.193,0,0,1,9.193-9.193Z" transform="translate(0.627 0)" fill="#00a2ff"/><path d="M53.94,11.253a1.313,1.313,0,0,1,0-2.627h2.627V6H53.94a3.94,3.94,0,0,0,0,7.88,1.313,1.313,0,0,1,0,2.627H51.313v2.627H53.94a3.94,3.94,0,1,0,0-7.88Z" transform="translate(15.663 1.253)" fill="#00a2ff"/><rect width="5" height="3" transform="translate(37 7)" fill="#00a2ff"/><rect width="2" height="3" transform="translate(45 7)" fill="#00a2ff"/><rect width="3" height="4" transform="translate(9 14)" fill="#00a2ff"/><rect width="3" height="7" transform="translate(13 11)" fill="#00a2ff"/><rect width="3" height="9" transform="translate(17 9)" fill="#00a2ff"/><rect width="3" height="3" transform="translate(76 27)"/><rect width="3" height="3" transform="translate(76 32)"/><rect width="3" height="3" transform="translate(76 37)"/><rect width="3" height="2" transform="translate(76 43)"/><rect width="3" height="3" transform="translate(76 48)"/><rect width="3" height="3" transform="translate(71 48)"/><rect width="3" height="3" transform="translate(5 27)"/><rect width="3" height="3" transform="translate(5 32)"/><rect width="3" height="3" transform="translate(5 37)"/><rect width="3" height="2" transform="translate(5 43)"/><rect width="3" height="3" transform="translate(5 48)"/><rect width="2" height="3" transform="translate(11 48)"/><rect width="3" height="3" transform="translate(5 73)"/><rect width="3" height="3" transform="translate(5 78)"/><rect width="3" height="2" transform="translate(8 76)"/><rect width="2" height="2" transform="translate(3 76)"/><rect width="3" height="3" transform="translate(76 73)"/><rect width="3" height="3" transform="translate(76 78)"/><rect width="2" height="2" transform="translate(79 76)"/><rect width="2" height="2" transform="translate(74 76)"/><rect width="2" height="2" transform="translate(41 55)" fill="#00a2ff"/></g></svg>