<svg xmlns="http://www.w3.org/2000/svg" width="56.375" height="56.519" viewBox="0 0 56.375 56.519"><g transform="translate(0 0)"><path d="M1.432,56.891H55.067a1.307,1.307,0,0,0,.775-2.36L2.356,1.046A1.307,1.307,0,0,0,.125,1.97V55.585A1.306,1.306,0,0,0,1.432,56.891ZM51.89,54.278H42.639V51.429a1.307,1.307,0,0,0-2.614,0v2.848H33.079V49.766a1.307,1.307,0,1,0-2.614,0v4.511H23.52V51.429a1.307,1.307,0,0,0-2.614,0v2.848H13.96V49.766a1.307,1.307,0,0,0-2.614,0v4.511H2.739V44.839H7.25a1.307,1.307,0,1,0,0-2.614H2.739V35.279h2.85a1.307,1.307,0,1,0,0-2.614H2.739V25.722H7.25a1.308,1.308,0,0,0,0-2.616H2.739V16.162h2.85a1.308,1.308,0,0,0,0-2.616H2.739V5.126Z" transform="translate(-0.125 -0.372)"/><path d="M24.134,61.063H37.869a1.308,1.308,0,0,0,.776-2.361L25.058,45.115a1.307,1.307,0,0,0-2.231.924V59.754A1.308,1.308,0,0,0,24.134,61.063ZM25.441,49.2l9.252,9.251H25.441Z" transform="translate(-8.696 -17.01)"/><path d="M64.55,28.58c0-.016-.013-.03-.018-.046a1.208,1.208,0,0,0-.088-.231c-.012-.026-.024-.051-.038-.077A1.261,1.261,0,0,0,64.241,28c-.007-.009-.012-.017-.019-.026l0,0L41.4,4.254A1.261,1.261,0,0,0,41.207,4a1.309,1.309,0,0,0-.225-.181l-1.9-1.977a5.513,5.513,0,0,0-7.805-.065L29.552,3.47a5.524,5.524,0,0,0-.071,7.8L54.611,37.382l.01.009c.016.016.034.028.05.042a1.326,1.326,0,0,0,.195.149l.084.046a1.319,1.319,0,0,0,.219.09c.018.006.033.016.051.021l10.107,2.675a1.3,1.3,0,0,0,.334.044h.012a1.308,1.308,0,0,0,1.209-1.824Zm-8.972,6.036L34.365,12.573l5.86-5.766L61.439,28.851l-2.828,2.783ZM31.386,5.335l1.72-1.69a2.9,2.9,0,0,1,4.1.023l1.207,1.255-5.858,5.766-1.2-1.245A2.91,2.91,0,0,1,31.386,5.335ZM58.1,35.8l.838-.824,3.588-3.532L63.9,37.333Z" transform="translate(-10.614 -0.195)" fill="#00a2ff"/><path d="M62.372,33.755,48.018,18.593a1.307,1.307,0,1,0-1.9,1.8L60.473,35.554a1.307,1.307,0,1,0,1.9-1.8Z" transform="translate(-17.355 -6.987)" fill="#00a2ff"/></g></svg>