<svg xmlns="http://www.w3.org/2000/svg" width="77.15" height="52.68" viewBox="0 0 77.15 52.68"><g transform="translate(-0.6 -49.6)"><g transform="translate(-2 32)"><path d="M23.41,65.3H7.963a1.463,1.463,0,0,0,0,2.927H23.41a1.463,1.463,0,0,0,0-2.927Z" transform="translate(-0.729 -8.922)" fill="#00a2ff"/><path d="M20.973,49.663A1.457,1.457,0,0,0,19.51,48.2H4.063a1.463,1.463,0,1,0,0,2.927H19.51A1.457,1.457,0,0,0,20.973,49.663Z" transform="translate(0 -5.723)" fill="#00a2ff"/><path d="M23.41,31.1H7.963a1.463,1.463,0,1,0,0,2.927H23.41a1.457,1.457,0,0,0,1.463-1.463A1.409,1.409,0,0,0,23.41,31.1Z" transform="translate(-0.729 -2.525)" fill="#00a2ff"/><path d="M59.04,17.6A26.34,26.34,0,1,0,85.38,43.94,26.334,26.334,0,0,0,59.04,17.6ZM82.372,42.477H77.088a1.463,1.463,0,1,0,0,2.927h5.284a22.673,22.673,0,0,1-5.853,13.983l-3.74-3.74a1.495,1.495,0,0,0-2.114,2.114L74.4,61.5a23.471,23.471,0,0,1-13.983,5.772V61.988a1.463,1.463,0,1,0-2.927,0v5.284a22.917,22.917,0,0,1-13.9-5.853l3.74-3.74a1.495,1.495,0,0,0-2.114-2.114L41.48,59.3a23.181,23.181,0,0,1-5.691-13.983h5.2a1.457,1.457,0,0,0,1.463-1.463,1.6,1.6,0,0,0-1.545-1.545h-5.2a23.122,23.122,0,0,1,5.853-13.9l3.658,3.658a1.346,1.346,0,0,0,1.057.406,1.712,1.712,0,0,0,1.057-.406,1.522,1.522,0,0,0,0-2.114L43.675,26.3a23.037,23.037,0,0,1,13.9-5.772v5.2a1.463,1.463,0,0,0,2.927,0v-5.2A23.661,23.661,0,0,1,82.372,42.477Z" transform="translate(-5.63)"/><path d="M65.753,43.207a4.082,4.082,0,1,0,2.114,2.114l9.105-9.105A1.495,1.495,0,0,0,74.858,34.1Z" transform="translate(-10.717 -3.007)" fill="#00a2ff"/></g></g></svg>