<svg xmlns="http://www.w3.org/2000/svg" width="55.153" height="55.089" viewBox="0 0 55.153 55.089">
  <g id="ode-bigcommerce" transform="translate(0.01 -0.2)">
    <path id="Path_250" data-name="Path 250" d="M72.735,80.851a.357.357,0,0,1-.245-.46.35.35,0,0,1,.214-.245,6.486,6.486,0,0,0,3.952-5.852c0-3.585-3.095-6.894-8.334-6.894h-3.37L44.7,87.591l9.039-9.008V94.117a.458.458,0,0,0,.429.4H68.752c5.3,0,8.058-3.278,8.058-7.353A6.757,6.757,0,0,0,72.735,80.851Zm-13.083-8a.458.458,0,0,1,.429-.4h6.955c1.992,0,3.217,1.195,3.217,2.849,0,1.746-1.256,2.849-3.217,2.849H60.081a.458.458,0,0,1-.429-.4ZM67.25,89.4h-7.17a.419.419,0,0,1-.429-.429V83.577a.457.457,0,0,1,.429-.4h7.2c2.267,0,3.523,1.379,3.523,3.095C70.774,88.265,69.456,89.4,67.25,89.4Z" transform="translate(-31.011 -46.611)" fill="#fff"/>
    <path id="Path_251" data-name="Path 251" d="M93.5,89.2V84.3a.458.458,0,0,1,.429-.4h6.955c1.992,0,3.217,1.195,3.217,2.849,0,1.746-1.256,2.849-3.217,2.849H93.929A.413.413,0,0,1,93.5,89.2Z" transform="translate(-64.859 -58.055)" fill="#fff"/>
    <path id="Path_252" data-name="Path 252" d="M93.5,124.691V119.3a.458.458,0,0,1,.429-.4h7.2c2.267,0,3.523,1.379,3.523,3.095,0,1.992-1.317,3.095-3.523,3.095h-7.2A.4.4,0,0,1,93.5,124.691Z" transform="translate(-64.859 -82.331)" fill="#fff"/>
    <g id="f8429da1-72b5-40de-8cc9-7db7d0019e50" transform="translate(-0.01 0.2)">
      <g id="b1ed97a0-24d1-40c3-bda4-5cd61a1739f5" transform="translate(0 0)">
        <g id="Group_301" data-name="Group 301" transform="translate(28.65 25.645)">
          <path id="Path_253" data-name="Path 253" d="M104.1,86.749c0,1.746-1.256,2.849-3.217,2.849H93.929a.458.458,0,0,1-.429-.4V84.3a.458.458,0,0,1,.429-.4h6.955C102.845,83.9,104.1,85.095,104.1,86.749Z" transform="translate(-93.5 -83.9)" fill="#34313f"/>
          <path id="Path_254" data-name="Path 254" d="M104.622,122.025c0,1.992-1.317,3.095-3.523,3.095h-7.17a.419.419,0,0,1-.429-.429V119.3a.458.458,0,0,1,.429-.4h7.2C103.4,118.9,104.622,120.309,104.622,122.025Z" transform="translate(-93.5 -108.176)" fill="#34313f"/>
        </g>
        <path id="Path_255" data-name="Path 255" d="M55.144.506V54.921a.373.373,0,0,1-.368.368H.453a.442.442,0,0,1-.46-.49.492.492,0,0,1,.153-.337l8-7.966.46-.46,5.086-5.055h0l9.039-9.008V47.507a.458.458,0,0,0,.429.4H37.741c5.3,0,8.058-3.278,8.058-7.353a6.716,6.716,0,0,0-4.044-6.312.357.357,0,0,1-.245-.46.35.35,0,0,1,.214-.245,6.486,6.486,0,0,0,3.952-5.852c0-3.585-3.095-6.894-8.334-6.894h-3.37l8.3-8.273,1.409-1.409h0L54.163.66l.368-.368a.373.373,0,0,1,.49,0A.205.205,0,0,1,55.144.506Z" transform="translate(0.01 -0.2)" fill="#34313f"/>
      </g>
    </g>
  </g>
</svg>
