<svg id="ode-wordpress" xmlns="http://www.w3.org/2000/svg" width="60.406" height="60.406" viewBox="0 0 60.406 60.406">
  <path id="Path_306" data-name="Path 306" d="M30.2,1.812a28.341,28.341,0,1,1-11.05,2.23A28.25,28.25,0,0,1,30.2,1.812M30.2,0a30.2,30.2,0,1,0,30.2,30.2A30.2,30.2,0,0,0,30.2,0Z" fill="#32373c"/>
  <path id="Path_307" data-name="Path 307" d="M55.555,80.724a25.171,25.171,0,0,0,14.186,22.651L57.735,70.481A25.071,25.071,0,0,0,55.555,80.724Zm42.161-1.269a13.255,13.255,0,0,0-2.075-6.941c-1.276-2.074-2.472-3.829-2.472-5.9A4.358,4.358,0,0,1,97.4,62.143c.112,0,.217.013.326.02A25.164,25.164,0,0,0,59.7,66.9c.591.019,1.148.031,1.62.031,2.632,0,6.708-.32,6.708-.32a1.04,1.04,0,0,1,.161,2.074s-1.364.16-2.88.239l9.165,27.263,5.509-16.519L76.057,68.923c-1.356-.079-2.64-.239-2.64-.239a1.04,1.04,0,0,1,.16-2.074s4.156.32,6.629.32c2.632,0,6.709-.32,6.709-.32a1.04,1.04,0,0,1,.16,2.074s-1.365.16-2.88.239l9.1,27.055,2.6-8.227c1.154-3.6,1.83-6.143,1.83-8.3ZM81.167,82.925l-7.553,21.943a25.18,25.18,0,0,0,15.469-.4,2.3,2.3,0,0,1-.181-.347Zm21.645-14.276a19.333,19.333,0,0,1,.169,2.588,23.759,23.759,0,0,1-1.915,9.015l-7.687,22.226a25.173,25.173,0,0,0,9.433-33.829Z" transform="translate(-50.522 -50.521)" fill="#32373c"/>
</svg>
