<svg xmlns="http://www.w3.org/2000/svg" width="62.184" height="59.903" viewBox="0 0 62.184 59.903">
  <g id="Layer_2" data-name="Layer 2" transform="translate(0.001)">
    <g id="Layer_1" data-name="Layer 1" transform="translate(-0.001)">
      <path id="Path_272" data-name="Path 272" d="M8.132,41.412S1.24,53.5,9.7,67.768A35.971,35.971,0,0,0,32.679,84.452s17.533,4.473,27.811-8.463c0,0-6.651,17.893-28.416,16.684S2.449,71.758,2.449,71.758s-4.474-9.914-1.331-19.465C1.118,52.293,1.965,48.666,8.132,41.412Z" transform="translate(0.001 -32.828)" fill="#0769ad"/>
      <path id="Path_273" data-name="Path 273" d="M93.152,13.415A19.448,19.448,0,0,0,94,33.363a25.656,25.656,0,0,0,16.929,11.969S123.5,48.476,131.12,38.2c0,0-4.111,11-16.082,12.936-12.576,2.055-23.458-6.891-26.844-16.442S89.04,18.251,93.152,13.415Z" transform="translate(-68.936 -10.634)" fill="#0769ad"/>
      <path id="Path_274" data-name="Path 274" d="M187.765,16.2s-3.628,6.045-12.817,3.506a16.428,16.428,0,0,1-11.366-10.76A11.639,11.639,0,0,1,164.307,0s-5.562,5.44-3.144,12.694,9.673,11.364,15.115,10.881S184.863,21.641,187.765,16.2Z" transform="translate(-127.274)" fill="#0769ad"/>
    </g>
  </g>
</svg>
