<svg xmlns="http://www.w3.org/2000/svg" width="61" height="61" viewBox="0 0 61 61">
  <g id="ode-woocommerce" transform="translate(-1107.396 -3697.891)">
    <rect id="Rectangle_289" data-name="Rectangle 289" width="61" height="61" transform="translate(1107.396 3697.891)" fill="#9b5c8f"/>
    <path id="Path_304" data-name="Path 304" d="M1113.837,3706.826a3.337,3.337,0,0,1,2.655-1.249,3.047,3.047,0,0,1,3.592,2.5v.625c1.25,8.9,2.811,16.4,4.217,22.49l9.215-17.648a3.71,3.71,0,0,1,3.124-2.5c1.874-.156,2.967,1.093,3.436,3.592a77.039,77.039,0,0,0,4.061,14.525c1.093-10.776,2.968-18.585,5.622-23.271a3.086,3.086,0,0,1,2.811-1.874,3.367,3.367,0,0,1,2.655.781,2.966,2.966,0,0,1,1.249,2.343,4.322,4.322,0,0,1-.469,2.03c-1.718,3.124-2.967,8.121-4.061,15.305a79.829,79.829,0,0,0-1.25,16.086,4.506,4.506,0,0,1-.469,2.812,2.819,2.819,0,0,1-2.187,1.562,4.394,4.394,0,0,1-3.28-1.562c-3.9-4.061-7.028-10-9.371-18.117q-4.217,8.2-6.091,12.182c-2.5,4.842-4.685,7.185-6.4,7.34-1.093.156-2.187-.937-2.967-2.967-2.187-5.623-4.529-16.243-7.028-32.173A4.682,4.682,0,0,1,1113.837,3706.826Z" transform="translate(3.314 3.734)" fill="#fff"/>
  </g>
</svg>
