<svg id="Layer_1" data-name="Layer 1" xmlns="http://www.w3.org/2000/svg" width="64.294" height="64.294" viewBox="0 0 64.294 64.294">
  <path id="Path_7632" data-name="Path 7632" d="M32.152,0A32.147,32.147,0,1,0,64.294,32.147,32.148,32.148,0,0,0,32.152,0ZM49.476,18.6a2.253,2.253,0,0,1-2.555-2.189,2.307,2.307,0,0,1,.446-1.436c.337-.644.406-.723.4-1-.03-.852-1.317-.891-1.664-.872-4.824.158-6.1,6.676-7.132,11.965l-.505,2.793a8.648,8.648,0,0,0,5.854-.8c1.545-1-.436-2.04-.188-3.179a2.278,2.278,0,0,1,2.159-1.753,2.216,2.216,0,0,1,1.991,2.437c-.04,2.05-2.764,4.873-8.211,4.754a17.349,17.349,0,0,1-1.842-.129l-1.03,5.676c-.921,4.3-2.139,10.163-6.518,15.283-3.754,4.467-7.567,5.17-9.271,5.22-3.2.109-5.319-1.595-5.4-3.863a3.406,3.406,0,0,1,3.16-3.447A2.732,2.732,0,0,1,22.1,50.665a1.728,1.728,0,0,1-1.01,1.8c-.277.228-.693.456-.674.951a.831.831,0,0,0,.941.683,5.027,5.027,0,0,0,2.872-1.169c3.12-2.6,4.319-7.112,5.884-15.333l.327-2c.535-2.674,1.129-5.655,2.03-8.627-2.189-1.654-3.506-3.7-6.458-4.507-2.021-.545-3.259-.079-4.12,1.021a2.99,2.99,0,0,0,.307,3.982l1.634,1.8c2.011,2.327,3.111,4.13,2.694,6.566-.654,3.873-5.279,6.854-10.737,5.17-4.665-1.436-5.537-4.735-4.982-6.557a2.2,2.2,0,0,1,3.011-1.525A2.62,2.62,0,0,1,15.293,36.2a4.734,4.734,0,0,1-.248.654,8,8,0,0,0-.565,1.04c-.307.981,1.04,1.674,1.971,1.961a3.647,3.647,0,0,0,4.636-2.139,2.972,2.972,0,0,0-.911-3.051l-1.971-2.12c-.9-1-2.892-3.813-1.922-6.963a6.751,6.751,0,0,1,2.308-3.358,8.32,8.32,0,0,1,7.528-1.377c3.239.931,4.794,3.071,6.806,4.725A27.588,27.588,0,0,1,37.967,16.3,11.49,11.49,0,0,1,46.2,11.9c3.269-.109,5.735,1.367,5.814,3.7a2.773,2.773,0,0,1-2.536,3Z" fill="#1a171b"/>
</svg>
