<svg id="Layer_2" data-name="Layer 2" xmlns="http://www.w3.org/2000/svg" width="47.996" height="62.788" viewBox="0 0 47.996 62.788">
  <g id="Layer_1" data-name="Layer 1">
    <path id="Path_267" data-name="Path 267" d="M22.7,0s3.667,5.619-5.676,14.456S0,31.593,0,43.776,10.046,61.65,15.269,62.788c0,0-6.965-3.548-6.43-11.246,0,0-.067-5.088,5.759-9.64,0,0-1.473,5.69,3.817,6.226,0,0,3.014-.2,3.617-2.745s-.469-4.485-2.277-6.293a8.314,8.314,0,0,1,.268-11.916s-1.406,3.95,6.563,8.569,10.782,9.908,11.519,12.385,1.206,10.175-7.9,14.66c0,0,15.6-3.481,17.68-18.075,0,0,2.143-13.523-12.256-21.221,0,0,.749,4.324-3.55,4.552-4.1.217-5.224-5.355-4.621-7.23s1.273-4.887,1.273-4.887S31.543,7.435,22.7,0Z" fill="#dd4814"/>
  </g>
</svg>
