<svg xmlns="http://www.w3.org/2000/svg" xmlns:xlink="http://www.w3.org/1999/xlink" width="78.283" height="41.166" viewBox="0 0 78.283 41.166">
  <defs>
    <clipPath id="clip-path">
      <path id="Path_305" data-name="Path 305" d="M14.375-363.667c0,11.367,17.525,20.583,39.142,20.583h0c21.616,0,39.142-9.216,39.142-20.583h0c0-11.367-17.525-20.583-39.142-20.583h0c-21.616,0-39.142,9.216-39.142,20.583" transform="translate(-14.375 384.25)"/>
    </clipPath>
    <radialGradient id="radial-gradient" cx="0.3" cy="0.176" r="1.561" gradientTransform="translate(0.066 2.03) scale(0.526 1)" gradientUnits="objectBoundingBox">
      <stop offset="0" stop-color="#aeb2d5"/>
      <stop offset="0.3" stop-color="#aeb2d5"/>
      <stop offset="0.75" stop-color="#484c89"/>
      <stop offset="1" stop-color="#484c89"/>
    </radialGradient>
  </defs>
  <g id="g3438" transform="translate(-14.375 384.25)">
    <g id="g3440" transform="translate(14.375 -384.25)">
      <g id="Group_303" data-name="Group 303" transform="translate(0 0)">
        <g id="g3442" clip-path="url(#clip-path)">
          <g id="g3448">
            <g id="g3450">
              <path id="path3462" d="M14.375-363.667c0,11.367,17.525,20.583,39.142,20.583h0c21.616,0,39.142-9.216,39.142-20.583h0c0-11.367-17.525-20.583-39.142-20.583h0c-21.616,0-39.142,9.216-39.142,20.583" transform="translate(-14.375 384.25)" fill="url(#radial-gradient)"/>
            </g>
          </g>
        </g>
      </g>
    </g>
    <g id="g3464" transform="translate(15.904 -382.715)">
      <g id="Group_304" data-name="Group 304" transform="translate(0 0)">
        <g id="g3466">
          <g id="g3472">
            <path id="path3474" d="M-294.512-298.392c20.767,0,37.613-8.536,37.613-19.054S-273.745-336.5-294.512-336.5s-37.613,8.522-37.613,19.054,16.846,19.054,37.613,19.054" transform="translate(332.125 336.5)" fill="#777bb3"/>
          </g>
        </g>
      </g>
    </g>
    <g id="g3476" transform="translate(25.86 -379.105)">
      <g id="Group_305" data-name="Group 305" transform="translate(0 0)">
        <g id="g3478">
          <g id="g3484" transform="translate(0.429 5.91)">
            <path id="path3486" d="M-73.24-93.109a6.233,6.233,0,0,0,3.794-.934,5.1,5.1,0,0,0,1.628-3.171c.269-1.387.17-2.364-.311-2.874-.467-.538-1.515-.807-3.086-.807h-2.732l-1.515,7.786Zm-8.933,9.6a.423.423,0,0,1-.326-.156.4.4,0,0,1-.085-.354l4.006-20.64a.423.423,0,0,1,.411-.34h8.649c2.718,0,4.742.736,6,2.194s1.67,3.511,1.175,6.073a9.6,9.6,0,0,1-1.033,2.888,9.3,9.3,0,0,1-1.911,2.392,8.511,8.511,0,0,1-3.143,1.9A14.331,14.331,0,0,1-72.759-89h-3.5l-1.005,5.139a.423.423,0,0,1-.411.34h-4.5Z" transform="translate(82.594 105)"/>
          </g>
          <g id="g3488" transform="translate(0 5.485)">
            <path id="path3490" d="M-73.817-38.8h2.378c1.9,0,2.562.411,2.789.665a3.146,3.146,0,0,1,.2,2.52,4.7,4.7,0,0,1-1.472,2.9,5.844,5.844,0,0,1-3.525.849h-1.7Zm4.077-4.955h-8.649a.848.848,0,0,0-.835.694l-4.006,20.64a.852.852,0,0,0,.184.708.825.825,0,0,0,.651.311h4.5a.848.848,0,0,0,.835-.694l.934-4.8h3.143a14.692,14.692,0,0,0,4.459-.58,9,9,0,0,0,3.313-1.982,9.853,9.853,0,0,0,2-2.506,10.077,10.077,0,0,0,1.09-3.015c.524-2.7.1-4.87-1.274-6.441-1.359-1.543-3.5-2.336-6.342-2.336M-76.2-31.009h2.732a6.635,6.635,0,0,0,4.049-1.019,5.421,5.421,0,0,0,1.8-3.426c.3-1.529.156-2.619-.411-3.242s-1.7-.948-3.412-.948h-3.072L-76.2-31.009M-69.74-42.9c2.6,0,4.5.679,5.691,2.053s1.557,3.27,1.076,5.719a9.289,9.289,0,0,1-.991,2.76,9.307,9.307,0,0,1-1.826,2.293,7.968,7.968,0,0,1-2.987,1.8,14.513,14.513,0,0,1-4.2.524h-3.85l-1.062,5.493h-4.5l4.02-20.64h8.635" transform="translate(83.244 43.75)" fill="#fff"/>
          </g>
          <g id="g3492" transform="translate(19.575 0.418)">
            <path id="path3494" d="M-89.423-168.261a.423.423,0,0,1-.326-.156.4.4,0,0,1-.085-.354l1.77-9.131a2.262,2.262,0,0,0-.113-1.755c-.156-.156-.595-.425-1.925-.425h-3.213L-95.553-168.6a.423.423,0,0,1-.411.34h-4.459a.423.423,0,0,1-.326-.156.4.4,0,0,1-.085-.354l4.006-20.64a.423.423,0,0,1,.411-.34h4.459a.423.423,0,0,1,.326.156.4.4,0,0,1,.085.354l-.963,4.983h3.454c2.633,0,4.417.467,5.464,1.416,1.062.977,1.387,2.534.977,4.629l-1.869,9.612a.412.412,0,0,1-.411.34Z" transform="translate(100.844 189.75)"/>
          </g>
          <g id="g3496" transform="translate(19.144)">
            <path id="path3498" d="M-72.93,0h-4.459a.848.848,0,0,0-.835.694l-4.006,20.64a.852.852,0,0,0,.184.708.847.847,0,0,0,.651.311h4.459a.848.848,0,0,0,.835-.694l2.166-11.127h2.86c1.331,0,1.6.283,1.614.3.085.085.184.481.014,1.387l-1.784,9.1a.853.853,0,0,0,.184.708.847.847,0,0,0,.651.311h4.53a.848.848,0,0,0,.835-.694l1.869-9.6c.439-2.251.057-3.95-1.118-5.025-1.118-1.033-3-1.529-5.747-1.529h-2.944l.878-4.487A.852.852,0,0,0-72.279.3.858.858,0,0,0-72.93,0m0,.849-1.062,5.493h3.978c2.506,0,4.219.439,5.167,1.3s1.232,2.279.849,4.233l-1.869,9.6H-70.4l1.77-9.131a2.48,2.48,0,0,0-.227-2.123,3.105,3.105,0,0,0-2.237-.566h-3.567l-2.293,11.82H-81.41L-77.389.849h4.459" transform="translate(82.244)" fill="#fff"/>
          </g>
          <g id="g3500" transform="translate(35.51 5.91)">
            <path id="path3502" d="M-73.24-93.109a6.233,6.233,0,0,0,3.794-.934,5.1,5.1,0,0,0,1.628-3.171c.269-1.387.17-2.364-.311-2.874-.467-.538-1.515-.807-3.086-.807h-2.732l-1.515,7.786Zm-8.933,9.6a.423.423,0,0,1-.326-.156.4.4,0,0,1-.085-.354l4.006-20.64a.423.423,0,0,1,.411-.34h8.649c2.718,0,4.742.736,6,2.194s1.67,3.511,1.175,6.073a9.6,9.6,0,0,1-1.033,2.888,9.3,9.3,0,0,1-1.911,2.392,8.511,8.511,0,0,1-3.143,1.9A14.331,14.331,0,0,1-72.759-89h-3.5l-1.005,5.139a.423.423,0,0,1-.411.34h-4.5Z" transform="translate(82.594 105)"/>
          </g>
          <g id="g3504" transform="translate(35.081 5.485)">
            <path id="path3506" d="M-73.817-38.8h2.378c1.9,0,2.562.411,2.789.665a3.146,3.146,0,0,1,.2,2.52,4.7,4.7,0,0,1-1.472,2.9,5.844,5.844,0,0,1-3.525.849h-1.7Zm4.077-4.955h-8.649a.848.848,0,0,0-.835.694l-4.006,20.64a.852.852,0,0,0,.184.708.825.825,0,0,0,.651.311h4.5a.848.848,0,0,0,.835-.694l.934-4.8h3.143a14.692,14.692,0,0,0,4.459-.58,9,9,0,0,0,3.313-1.982,9.853,9.853,0,0,0,2-2.506,10.077,10.077,0,0,0,1.09-3.015c.524-2.7.1-4.87-1.274-6.441-1.359-1.543-3.5-2.336-6.342-2.336M-76.2-31.009h2.732a6.635,6.635,0,0,0,4.049-1.019,5.421,5.421,0,0,0,1.8-3.426c.3-1.529.156-2.619-.411-3.242s-1.7-.948-3.412-.948h-3.072L-76.2-31.009M-69.74-42.9c2.6,0,4.5.679,5.691,2.053s1.557,3.27,1.076,5.719a9.289,9.289,0,0,1-.991,2.76,9.307,9.307,0,0,1-1.826,2.293,7.968,7.968,0,0,1-2.987,1.8,14.513,14.513,0,0,1-4.2.524h-3.85l-1.062,5.493h-4.5l4.02-20.64h8.635" transform="translate(83.244 43.75)" fill="#fff"/>
          </g>
        </g>
      </g>
    </g>
  </g>
</svg>
