<svg id="ode-shopify" xmlns="http://www.w3.org/2000/svg" width="46.826" height="53.24" viewBox="0 0 46.826 53.24">
  <path id="Path_283" data-name="Path 283" d="M41.01,10.349a.5.5,0,0,0-.47-.428c-.214,0-4.276-.3-4.276-.3S33.441,6.8,33.1,6.5a1.269,1.269,0,0,0-1.155-.128c-.043,0-.641.171-1.582.47-.941-2.737-2.609-5.26-5.559-5.26h-.257A3.594,3.594,0,0,0,21.766,0c-6.885,0-10.178,8.6-11.2,12.957-2.651.813-4.576,1.411-4.789,1.5-1.5.47-1.539.513-1.711,1.924C3.891,17.4,0,47.553,0,47.553L30.362,53.24l16.464-3.549S41.053,10.648,41.01,10.349ZM28.651,7.355c-.77.257-1.625.513-2.566.813V7.612a13.541,13.541,0,0,0-.6-4.148C27.026,3.635,28.01,5.345,28.651,7.355ZM23.605,3.763a12.648,12.648,0,0,1,.684,4.618v.3c-1.668.513-3.507,1.069-5.3,1.625C20.013,6.414,21.938,4.49,23.605,3.763ZM21.553,1.839a1.507,1.507,0,0,1,.9.3c-2.181,1.026-4.576,3.635-5.559,8.852-1.454.47-2.865.9-4.191,1.283C13.855,8.3,16.635,1.839,21.553,1.839Z" transform="translate(0 0)" fill="#95bf47"/>
  <path id="Path_284" data-name="Path 284" d="M81.178,18.335c-.214,0-4.276-.3-4.276-.3s-2.822-2.822-3.164-3.122a.815.815,0,0,0-.428-.214L71,61.654,87.464,58.1s-5.773-39.043-5.816-39.3A.588.588,0,0,0,81.178,18.335Z" transform="translate(-40.638 -8.414)" fill="#5e8e3e"/>
  <path id="Path_285" data-name="Path 285" d="M34.433,43.412l-2.01,6.03a9.463,9.463,0,0,0-3.934-.941c-3.207,0-3.336,2.01-3.336,2.523,0,2.737,7.184,3.806,7.184,10.263,0,5.089-3.207,8.339-7.569,8.339a10.471,10.471,0,0,1-7.868-3.25l1.411-4.618s2.737,2.352,5.046,2.352A2.062,2.062,0,0,0,25.5,62.057c0-3.592-5.9-3.763-5.9-9.664,0-4.961,3.549-9.793,10.776-9.793A8.509,8.509,0,0,1,34.433,43.412Z" transform="translate(-9.673 -24.383)" fill="#fff"/>
</svg>
