<svg xmlns="http://www.w3.org/2000/svg" width="62" height="62" viewBox="0 0 62 62">
  <g id="ode-stickyio" transform="translate(0.255 0.256)">
    <rect id="Rectangle_288" data-name="Rectangle 288" width="62" height="62" rx="31" transform="translate(-0.255 -0.255)" fill="#31b4e7"/>
    <g id="Group_302" data-name="Group 302" transform="translate(5.002 22.986)">
      <path id="Path_256" data-name="Path 256" d="M72.223,92.224a2.33,2.33,0,1,1-.008-2.136l.021.042h1.522l-.033-.1a3.754,3.754,0,1,0,.006,2.255l.031-.1H72.246Z" transform="translate(-50.983 -83.523)" fill="#fff"/>
      <path id="Path_257" data-name="Path 257" d="M139.078,105.386a.943.943,0,1,0-.009,1.886h.029a.922.922,0,0,0,.953-.89v-.061a.934.934,0,0,0-.932-.936Z" transform="translate(-100.664 -95.971)" fill="#fff"/>
      <path id="Path_258" data-name="Path 258" d="M19.765,90.608l-.138-.045c-.783-.251-1.459-.468-1.459-.952v-.027c0-.416.386-.684.984-.684a4.142,4.142,0,0,1,2.006.672l.018.011.668-1.2-.016-.01a4.988,4.988,0,0,0-2.636-.815,2.3,2.3,0,0,0-2.563,2.2v.027c0,1.368,1.16,1.81,2.247,2.116.056.017.113.033.168.051.76.23,1.414.429,1.414.932v.026c0,.471-.408.752-1.09.752a4.047,4.047,0,0,1-2.33-.876l-.017-.013L16.278,93.9l-.01.015.013.01A5.02,5.02,0,0,0,19.325,95C20.973,95,22,94.135,22,92.737V92.71C22,91.475,20.924,90.97,19.765,90.608Z" transform="translate(-16.268 -83.626)" fill="#fff"/>
      <path id="Path_259" data-name="Path 259" d="M40.516,82.124h-1.6v1.924h-.889v1.38h.889v3.688a1.8,1.8,0,0,0,2.016,2.057,2.776,2.776,0,0,0,1.445-.358V89.5a2.162,2.162,0,0,1-1,.239.764.764,0,0,1-.861-.876V85.427H42.4V84.049H40.516Z" transform="translate(-31.335 -79.861)" fill="#fff"/>
      <path id="Path_260" data-name="Path 260" d="M59.027,88.374H57.422v7.005h1.605Z" transform="translate(-44.769 -84.189)" fill="#fff"/>
      <path id="Path_261" data-name="Path 261" d="M100.516,82.331h-1.95L95.66,85.436V79.651H94.055v9.687H95.66v-2l.995-1.035,2.07,3.038h1.883l-2.878-4.153Z" transform="translate(-70.14 -78.148)" fill="#fff"/>
      <path id="Path_262" data-name="Path 262" d="M121.884,88.369l-1.818,5.2-1.976-5.2h-1.725l2.921,7.018c-.266.6-.543.8-.995.8a1.978,1.978,0,0,1-.942-.265l-.543,1.194a3.306,3.306,0,0,0,1.658.425c1.128,0,1.752-.531,2.309-1.964l2.786-7.2h-1.673Z" transform="translate(-85.591 -84.185)" fill="#fff"/>
      <path id="Path_263" data-name="Path 263" d="M56.789,74.764a1.4,1.4,0,0,0-1.407,1.4v0a1.4,1.4,0,0,0,1.378,1.414h.058a1.378,1.378,0,0,0,1.425-1.329v-.092a1.4,1.4,0,0,0-1.39-1.4Z" transform="translate(-43.356 -74.763)" fill="#fff"/>
      <path id="Path_264" data-name="Path 264" d="M151.278,88.407h-1.6v7h1.605Z" transform="translate(-108.658 -84.212)" fill="#fff"/>
      <path id="Path_265" data-name="Path 265" d="M149.087,118.436a1.409,1.409,0,0,0,0-2.819h-.031a1.379,1.379,0,0,0-1.425,1.33v.09a1.4,1.4,0,0,0,1.392,1.4Z" transform="translate(-107.244 -103.056)" fill="#fff"/>
      <path id="Path_266" data-name="Path 266" d="M162.825,87.666a3.725,3.725,0,0,0-3.807,3.644v.107A3.685,3.685,0,0,0,162.7,95.1h.094a3.726,3.726,0,0,0,3.818-3.631v-.107a3.689,3.689,0,0,0-3.683-3.7C162.9,87.664,162.86,87.665,162.825,87.666Zm2.159,3.751a2.137,2.137,0,0,1-2.159,2.254,2.2,2.2,0,0,1-2.174-2.218v-.089A2.139,2.139,0,0,1,162.8,89.1a2.2,2.2,0,0,1,2.188,2.217q0,.039,0,.077v.027Z" transform="translate(-115.13 -83.698)" fill="#fff"/>
    </g>
  </g>
</svg>
