<svg width="30" height="30" viewBox="0 0 30 30" fill="none" xmlns="http://www.w3.org/2000/svg">
<path d="M19.5776 15L24.1553 15V18.6621C24.1553 20.682 22.5131 22.3242 20.4932 22.3242H20.0354C19.2744 22.3242 18.6621 22.9365 18.6621 23.6975V26.4441C18.6621 27.2051 19.2744 27.8174 20.0354 27.8174L20.4932 27.8174C25.5514 27.8174 29.6484 23.7204 29.6484 18.6621L29.6484 4.9292C29.6484 3.41285 28.4182 2.18262 26.9019 2.18262L19.5776 2.18262C18.0613 2.18262 16.8311 3.41285 16.8311 4.9292L16.8311 12.2534C16.8311 13.7698 18.0613 15 19.5776 15Z" fill="#FF7000"/>
<path d="M3.09814 15L7.67578 15L7.67578 18.6621C7.67578 20.682 6.03357 22.3242 4.01367 22.3242H3.55594C2.79492 22.3242 2.18262 22.9365 2.18262 23.6975L2.18262 26.4441C2.18262 27.2051 2.79486 27.8174 3.55594 27.8174L4.01367 27.8174C9.07195 27.8174 13.1689 23.7204 13.1689 18.6621L13.1689 4.9292C13.1689 3.41285 11.9387 2.18262 10.4224 2.18262L3.09814 2.18262C1.5818 2.18262 0.351563 3.41285 0.351563 4.9292L0.351563 12.2534C0.351563 13.7698 1.5818 15 3.09814 15Z" fill="#FF7000"/>
</svg>
